<?xml version="1.0" encoding="UTF-8"?>
<!DOCTYPE svg PUBLIC "-//W3C//DTD SVG 1.1//EN" "http://www.w3.org/Graphics/SVG/1.1/DTD/svg11.dtd">
<!-- Creator: CorelDRAW -->
<svg xmlns="http://www.w3.org/2000/svg" xml:space="preserve" width="10mm" height="10mm" version="1.1" style="shape-rendering:geometricPrecision; text-rendering:geometricPrecision; image-rendering:optimizeQuality; fill-rule:evenodd; clip-rule:evenodd"
viewBox="0 0 2253.08 2253.08"
 xmlns:xlink="http://www.w3.org/1999/xlink"
 xmlns:xodm="http://www.corel.com/coreldraw/odm/2003">
 <defs>
  <style type="text/css">
   <![CDATA[
    .fil0 {fill:#fff;fill-rule:nonzero}
   ]]>
  </style>
 </defs>
 <g id="Слой_x0020_1">
  <metadata id="CorelCorpID_0Corel-Layer"/>
  <path class="fil0" d="M1863.55 579.3l-692.46 0 0 -151.1c94.67,-23.36 165.36,-108.73 165.36,-210.63 0,-119.68 -97.36,-217.04 -217.04,-217.04 -119.68,0 -217.04,97.36 -217.04,217.04 0,101.91 70.69,187.27 165.36,210.63l0 151.1 -692.46 0c-210.84,0 -382.4,171.57 -382.4,382.4l0 909.51c0,210.84 171.57,382.4 382.4,382.4l1488.28 0c210.84,0 382.4,-171.57 382.4,-382.4l0 -909.51c0,-210.84 -171.57,-382.4 -382.4,-382.4zm-857.83 -361.74c0,-62.63 51.06,-113.69 113.69,-113.69 62.63,0 113.69,51.06 113.69,113.69 0,62.63 -51.06,113.69 -113.69,113.69 -62.63,0 -113.69,-51.06 -113.69,-113.69zm1136.89 1653.65c0,153.79 -125.26,279.06 -279.06,279.06l-1488.28 -0.01c-153.79,0 -279.06,-125.26 -279.06,-279.06l0 -909.51c0,-153.79 125.26,-279.06 279.06,-279.06l1488.28 0.02c153.79,0 279.06,125.26 279.06,279.06l0 909.5z"/>
  <path class="fil0" d="M1511.31 827.35l-165.36 165.36 -453.31 0 -165.36 -165.36 -290.84 0 -195.54 195.54 0 786.92 195.54 195.54 1365.92 0.01 195.54 -195.54 0 -786.92 -195.54 -195.54 -291.05 -0.01zm383.23 939.69l-135.19 135.19 -1279.92 0 -135.19 -135.19 0 -701.15 135.19 -135.19 205.26 0.01 165.36 165.36 538.88 0 165.36 -165.36 205.26 0 135.19 135.19 0 701.36 -0.2 -0.22z"/>
  <polygon class="fil0" points="586.73,1503.89 659.9,1577.06 788.68,1448.28 917.46,1577.06 990.63,1503.89 788.68,1301.94 "/>
  <polygon class="fil0" points="1248.19,1503.89 1321.36,1577.06 1450.14,1448.28 1578.92,1577.06 1652.09,1503.89 1450.14,1301.94 "/>
 </g>
</svg>
