<?xml version="1.0" encoding="UTF-8"?>
<!DOCTYPE svg PUBLIC "-//W3C//DTD SVG 1.1//EN" "http://www.w3.org/Graphics/SVG/1.1/DTD/svg11.dtd">
<!-- Creator: CorelDRAW -->
<svg xmlns="http://www.w3.org/2000/svg" xml:space="preserve" width="48.1542mm" height="14.2876mm" version="1.1" style="shape-rendering:geometricPrecision; text-rendering:geometricPrecision; image-rendering:optimizeQuality; fill-rule:evenodd; clip-rule:evenodd"
viewBox="0 0 4815.42 1428.76"
 xmlns:xlink="http://www.w3.org/1999/xlink"
 xmlns:xodm="http://www.corel.com/coreldraw/odm/2003">
 <defs>
  <style type="text/css">
   <![CDATA[
    .str0 {stroke:#FEFEFE;stroke-width:20;stroke-miterlimit:22.9256}
    .fil0 {fill:#039BE5;fill-rule:nonzero}
    .fil2 {fill:#FEFEFE;fill-rule:nonzero}
    .fil1 {fill:white;fill-rule:nonzero}
   ]]>
  </style>
 </defs>
 <g id="Слой_x0020_1">
  <metadata id="CorelCorpID_0Corel-Layer"/>
  <path class="fil0" d="M257.45 0.53l4286.26 0c146.09,0.01 264.57,118.49 264.57,264.59l0.01 899.58c-0.01,146.09 -118.49,264.57 -264.59,264.57l-4286.25 0.02c-146.09,-0.02 -264.57,-118.5 -264.57,-264.6l-0.01 -899.57c0.01,-146.1 118.49,-264.58 264.59,-264.58l-0.01 -0.01z"/>
  <path class="fil1" d="M2293.31 629.61l-106.68 0 0 -62.87 290.52 0 0 62.87 -106.68 0 0 270.51 -77.16 0 0 -270.51zm445.96 98.58l70.49 0 0 135.26c-18.1,13.65 -39.05,24.13 -62.87,31.43 -23.81,7.3 -47.78,10.95 -71.91,10.95 -34.61,0 -65.72,-7.3 -93.35,-21.9 -27.62,-14.93 -49.37,-35.41 -65.24,-61.44 -15.56,-26.35 -23.34,-56.04 -23.34,-89.06 0,-33.02 7.78,-62.55 23.34,-88.58 15.87,-26.35 37.78,-46.83 65.72,-61.44 27.94,-14.92 59.37,-22.38 94.3,-22.38 29.21,0 55.72,4.92 79.53,14.76 23.81,9.84 43.82,24.13 60.01,42.86l-49.53 45.72c-23.81,-25.08 -52.55,-37.62 -86.2,-37.62 -21.27,0 -40.17,4.45 -56.68,13.34 -16.51,8.89 -29.36,21.43 -38.57,37.62 -9.21,16.19 -13.81,34.77 -13.81,55.72 0,20.64 4.6,39.05 13.81,55.25 9.21,16.19 21.91,28.89 38.1,38.1 16.51,8.89 35.24,13.33 56.2,13.33 22.22,0 42.22,-4.76 60,-14.29l0 -97.63zm521.81 -1.43c19.05,6.04 33.98,16.2 44.77,30.48 10.8,13.97 16.19,31.28 16.19,51.91 0,29.21 -11.43,51.76 -34.29,67.63 -22.54,15.56 -55.56,23.34 -99.06,23.34l-172.4 0 0 -333.38 162.88 0c40.64,0 71.75,7.78 93.34,23.34 21.91,15.56 32.87,36.67 32.87,63.34 0,16.19 -3.97,30.64 -11.91,43.34 -7.62,12.7 -18.42,22.7 -32.39,30zm-168.11 -101.91l0 78.58 76.67 0c19.05,0 33.5,-3.34 43.34,-10 9.85,-6.67 14.77,-16.51 14.77,-29.53 0,-13.02 -4.92,-22.7 -14.77,-29.05 -9.84,-6.67 -24.29,-10 -43.34,-10l-76.67 0zm90.01 217.17c20.32,0 35.56,-3.34 45.72,-10.01 10.48,-6.66 15.72,-16.98 15.72,-30.95 0,-27.62 -20.48,-41.44 -61.44,-41.44l-90.01 0 0 82.4 90.01 0zm314.17 61.91c-26.99,0 -51.28,-5.56 -72.87,-16.67 -21.27,-11.43 -37.94,-27.15 -50.01,-47.15 -12.06,-20 -18.09,-42.7 -18.09,-68.1 0,-25.4 6.03,-48.1 18.09,-68.11 12.07,-20 28.74,-35.56 50.01,-46.67 21.59,-11.43 45.88,-17.14 72.87,-17.14 26.98,0 51.11,5.71 72.39,17.14 21.27,11.11 37.94,26.67 50,46.67 12.07,20.01 18.1,42.71 18.1,68.11 0,25.4 -6.03,48.1 -18.1,68.1 -12.06,20 -28.73,35.72 -50,47.15 -21.28,11.11 -45.41,16.67 -72.39,16.67zm0 -60.96c19.05,0 34.6,-6.35 46.67,-19.05 12.38,-13.02 18.57,-30.32 18.57,-51.91 0,-21.59 -6.19,-38.74 -18.57,-51.44 -12.07,-13.02 -27.62,-19.52 -46.67,-19.52 -19.05,0 -34.77,6.5 -47.15,19.52 -12.39,12.7 -18.58,29.85 -18.58,51.44 0,21.59 6.19,38.89 18.58,51.91 12.38,12.7 28.1,19.05 47.15,19.05zm355.41 44.77c-7.3,5.39 -16.35,9.52 -27.15,12.38 -10.47,2.54 -21.59,3.81 -33.33,3.81 -30.48,0 -54.14,-7.78 -70.96,-23.34 -16.51,-15.56 -24.77,-38.42 -24.77,-68.58l0 -105.25 -39.53 0 0 -57.15 39.53 0 0 -62.39 74.3 0 0 62.39 63.81 0 0 57.15 -63.81 0 0 104.3c0,10.79 2.69,19.21 8.09,25.24 5.72,5.72 13.65,8.57 23.81,8.57 11.75,0 21.75,-3.17 30.01,-9.52l20 52.39z"/>
  <path class="fil2 str0" d="M1132.03 461.48l-287.18 0 0 -62.67c39.26,-9.69 68.58,-45.09 68.58,-87.35 0,-49.63 -40.38,-90.01 -90.01,-90.01 -49.63,0 -90.01,40.38 -90.01,90.01 0,42.26 29.32,77.66 68.58,87.35l0 62.67 -287.18 0c-87.44,0 -158.58,71.14 -158.58,158.58l0 377.19c0,87.44 71.15,158.58 158.58,158.58l617.22 0c87.44,0 158.58,-71.15 158.58,-158.58l0 -377.19c0,-87.44 -71.15,-158.58 -158.58,-158.58zm-355.75 -150.02c0,-25.98 21.16,-47.15 47.14,-47.15 25.98,0 47.14,21.17 47.14,47.15 0,25.97 -21.16,47.14 -47.14,47.14 -25.98,0 -47.14,-21.17 -47.14,-47.14zm471.47 685.79c0,63.77 -51.95,115.72 -115.72,115.72l-617.22 0c-63.77,0 -115.72,-51.95 -115.72,-115.73l0 -377.18c0,-63.79 51.95,-115.74 115.72,-115.74l617.22 0.01c63.77,0 115.72,51.95 115.72,115.73l0 377.19z"/>
  <path class="fil2 str0" d="M985.94 564.34l-68.57 68.58 -188 0 -68.57 -68.58 -120.62 0 -81.09 81.1 0 326.34 81.09 81.09 566.47 0.01 81.09 -81.1 0 -326.34 -81.09 -81.09 -120.71 -0.01zm158.94 389.71l-56.07 56.06 -530.8 0 -56.06 -56.06 0 -290.78 56.06 -56.06 85.13 0 68.57 68.58 223.48 0 68.58 -68.58 85.12 0 56.07 56.06 0 290.86 -0.08 -0.08z"/>
  <polygon class="fil2 str0" points="602.51,844.91 632.86,875.26 686.27,821.85 739.67,875.26 770.01,844.91 686.27,761.16 "/>
  <polygon class="fil2 str0" points="876.83,844.91 907.17,875.26 960.57,821.85 1013.98,875.26 1044.33,844.91 960.57,761.16 "/>
 </g>
</svg>
