<svg width="182" height="54" viewBox="0 0 182 54" fill="none" xmlns="http://www.w3.org/2000/svg">
<rect width="182" height="54" rx="10" fill="#1976D2"/>
<path d="M72.8026 23.74V27.07H78.6346V29.41H72.8026V34H69.8866V21.4H79.4086V23.74H72.8026ZM84.827 24.172C86.327 24.172 87.479 24.532 88.283 25.252C89.087 25.96 89.489 27.034 89.489 28.474V34H86.861V32.794C86.333 33.694 85.349 34.144 83.909 34.144C83.165 34.144 82.517 34.018 81.965 33.766C81.425 33.514 81.011 33.166 80.723 32.722C80.435 32.278 80.291 31.774 80.291 31.21C80.291 30.31 80.627 29.602 81.299 29.086C81.983 28.57 83.033 28.312 84.449 28.312H86.681C86.681 27.7 86.495 27.232 86.123 26.908C85.751 26.572 85.193 26.404 84.449 26.404C83.933 26.404 83.423 26.488 82.919 26.656C82.427 26.812 82.007 27.028 81.659 27.304L80.651 25.342C81.179 24.97 81.809 24.682 82.541 24.478C83.285 24.274 84.047 24.172 84.827 24.172ZM84.611 32.254C85.091 32.254 85.517 32.146 85.889 31.93C86.261 31.702 86.525 31.372 86.681 30.94V29.95H84.755C83.603 29.95 83.027 30.328 83.027 31.084C83.027 31.444 83.165 31.732 83.441 31.948C83.729 32.152 84.119 32.254 84.611 32.254ZM96.8158 34.144C95.7838 34.144 94.8538 33.934 94.0258 33.514C93.2098 33.082 92.5678 32.488 92.0998 31.732C91.6438 30.976 91.4158 30.118 91.4158 29.158C91.4158 28.198 91.6438 27.34 92.0998 26.584C92.5678 25.828 93.2098 25.24 94.0258 24.82C94.8538 24.388 95.7838 24.172 96.8158 24.172C97.8358 24.172 98.7238 24.388 99.4798 24.82C100.248 25.24 100.806 25.846 101.154 26.638L98.9758 27.808C98.4718 26.92 97.7458 26.476 96.7978 26.476C96.0658 26.476 95.4598 26.716 94.9798 27.196C94.4998 27.676 94.2598 28.33 94.2598 29.158C94.2598 29.986 94.4998 30.64 94.9798 31.12C95.4598 31.6 96.0658 31.84 96.7978 31.84C97.7578 31.84 98.4838 31.396 98.9758 30.508L101.154 31.696C100.806 32.464 100.248 33.064 99.4798 33.496C98.7238 33.928 97.8358 34.144 96.8158 34.144ZM112.134 29.194C112.134 29.23 112.116 29.482 112.08 29.95H104.754C104.886 30.55 105.198 31.024 105.69 31.372C106.182 31.72 106.794 31.894 107.526 31.894C108.03 31.894 108.474 31.822 108.858 31.678C109.254 31.522 109.62 31.282 109.956 30.958L111.45 32.578C110.538 33.622 109.206 34.144 107.454 34.144C106.362 34.144 105.396 33.934 104.556 33.514C103.716 33.082 103.068 32.488 102.612 31.732C102.156 30.976 101.928 30.118 101.928 29.158C101.928 28.21 102.15 27.358 102.594 26.602C103.05 25.834 103.668 25.24 104.448 24.82C105.24 24.388 106.122 24.172 107.094 24.172C108.042 24.172 108.9 24.376 109.668 24.784C110.436 25.192 111.036 25.78 111.468 26.548C111.912 27.304 112.134 28.186 112.134 29.194ZM107.112 26.296C106.476 26.296 105.942 26.476 105.51 26.836C105.078 27.196 104.814 27.688 104.718 28.312H109.488C109.392 27.7 109.128 27.214 108.696 26.854C108.264 26.482 107.736 26.296 107.112 26.296ZM119.727 24.172C120.627 24.172 121.443 24.382 122.175 24.802C122.919 25.21 123.501 25.792 123.921 26.548C124.341 27.292 124.551 28.162 124.551 29.158C124.551 30.154 124.341 31.03 123.921 31.786C123.501 32.53 122.919 33.112 122.175 33.532C121.443 33.94 120.627 34.144 119.727 34.144C118.395 34.144 117.381 33.724 116.685 32.884V34H114.003V20.644H116.811V25.342C117.519 24.562 118.491 24.172 119.727 24.172ZM119.241 31.84C119.961 31.84 120.549 31.6 121.005 31.12C121.473 30.628 121.707 29.974 121.707 29.158C121.707 28.342 121.473 27.694 121.005 27.214C120.549 26.722 119.961 26.476 119.241 26.476C118.521 26.476 117.927 26.722 117.459 27.214C117.003 27.694 116.775 28.342 116.775 29.158C116.775 29.974 117.003 30.628 117.459 31.12C117.927 31.6 118.521 31.84 119.241 31.84ZM131.039 34.144C130.019 34.144 129.101 33.934 128.285 33.514C127.481 33.082 126.851 32.488 126.395 31.732C125.939 30.976 125.711 30.118 125.711 29.158C125.711 28.198 125.939 27.34 126.395 26.584C126.851 25.828 127.481 25.24 128.285 24.82C129.101 24.388 130.019 24.172 131.039 24.172C132.059 24.172 132.971 24.388 133.775 24.82C134.579 25.24 135.209 25.828 135.665 26.584C136.121 27.34 136.349 28.198 136.349 29.158C136.349 30.118 136.121 30.976 135.665 31.732C135.209 32.488 134.579 33.082 133.775 33.514C132.971 33.934 132.059 34.144 131.039 34.144ZM131.039 31.84C131.759 31.84 132.347 31.6 132.803 31.12C133.271 30.628 133.505 29.974 133.505 29.158C133.505 28.342 133.271 27.694 132.803 27.214C132.347 26.722 131.759 26.476 131.039 26.476C130.319 26.476 129.725 26.722 129.257 27.214C128.789 27.694 128.555 28.342 128.555 29.158C128.555 29.974 128.789 30.628 129.257 31.12C129.725 31.6 130.319 31.84 131.039 31.84ZM142.834 34.144C141.814 34.144 140.896 33.934 140.08 33.514C139.276 33.082 138.646 32.488 138.19 31.732C137.734 30.976 137.506 30.118 137.506 29.158C137.506 28.198 137.734 27.34 138.19 26.584C138.646 25.828 139.276 25.24 140.08 24.82C140.896 24.388 141.814 24.172 142.834 24.172C143.854 24.172 144.766 24.388 145.57 24.82C146.374 25.24 147.004 25.828 147.46 26.584C147.916 27.34 148.144 28.198 148.144 29.158C148.144 30.118 147.916 30.976 147.46 31.732C147.004 32.488 146.374 33.082 145.57 33.514C144.766 33.934 143.854 34.144 142.834 34.144ZM142.834 31.84C143.554 31.84 144.142 31.6 144.598 31.12C145.066 30.628 145.3 29.974 145.3 29.158C145.3 28.342 145.066 27.694 144.598 27.214C144.142 26.722 143.554 26.476 142.834 26.476C142.114 26.476 141.52 26.722 141.052 27.214C140.584 27.694 140.35 28.342 140.35 29.158C140.35 29.974 140.584 30.628 141.052 31.12C141.52 31.6 142.114 31.84 142.834 31.84ZM154.179 30.202L152.829 31.534V34H150.021V20.644H152.829V28.204L156.933 24.316H160.281L156.249 28.42L160.641 34H157.239L154.179 30.202Z" fill="white"/>
<path d="M42.75 10H17.25C14.9061 10 13 11.9061 13 14.25V39.75C13 42.0939 14.9061 44 17.25 44H42.75C45.0939 44 47 42.0939 47 39.75V14.25C47 11.9061 45.0939 10 42.75 10Z" fill="#1976D2"/>
<path d="M41.6875 27H36.375V22.75C36.375 21.577 37.327 21.6875 38.5 21.6875H40.625V16.375H36.375C32.8539 16.375 30 19.2289 30 22.75V27H25.75V32.3125H30V44H36.375V32.3125H39.5625L41.6875 27Z" fill="#FAFAFA"/>
</svg>
