<svg width="182" height="54" viewBox="0 0 182 54" fill="none" xmlns="http://www.w3.org/2000/svg">
<rect width="182" height="54" rx="10" fill="url(#paint0_linear)"/>
<path d="M67.4081 21.4H70.3241V34H67.4081V21.4ZM79.0023 24.172C80.2023 24.172 81.1683 24.532 81.9003 25.252C82.6443 25.972 83.0163 27.04 83.0163 28.456V34H80.2083V28.888C80.2083 28.12 80.0403 27.55 79.7043 27.178C79.3683 26.794 78.8823 26.602 78.2463 26.602C77.5383 26.602 76.9743 26.824 76.5543 27.268C76.1343 27.7 75.9243 28.348 75.9243 29.212V34H73.1163V24.316H75.7983V25.45C76.1703 25.042 76.6323 24.73 77.1843 24.514C77.7363 24.286 78.3423 24.172 79.0023 24.172ZM88.8196 34.144C88.0156 34.144 87.2296 34.048 86.4616 33.856C85.6936 33.652 85.0816 33.4 84.6256 33.1L85.5616 31.084C85.9936 31.36 86.5156 31.588 87.1276 31.768C87.7396 31.936 88.3396 32.02 88.9276 32.02C90.1156 32.02 90.7096 31.726 90.7096 31.138C90.7096 30.862 90.5476 30.664 90.2236 30.544C89.8996 30.424 89.4016 30.322 88.7296 30.238C87.9376 30.118 87.2836 29.98 86.7676 29.824C86.2516 29.668 85.8016 29.392 85.4176 28.996C85.0456 28.6 84.8596 28.036 84.8596 27.304C84.8596 26.692 85.0336 26.152 85.3816 25.684C85.7416 25.204 86.2576 24.832 86.9296 24.568C87.6136 24.304 88.4176 24.172 89.3416 24.172C90.0256 24.172 90.7036 24.25 91.3756 24.406C92.0596 24.55 92.6236 24.754 93.0676 25.018L92.1316 27.016C91.2796 26.536 90.3496 26.296 89.3416 26.296C88.7416 26.296 88.2916 26.38 87.9916 26.548C87.6916 26.716 87.5416 26.932 87.5416 27.196C87.5416 27.496 87.7036 27.706 88.0276 27.826C88.3516 27.946 88.8676 28.06 89.5756 28.168C90.3676 28.3 91.0156 28.444 91.5196 28.6C92.0236 28.744 92.4616 29.014 92.8336 29.41C93.2056 29.806 93.3916 30.358 93.3916 31.066C93.3916 31.666 93.2116 32.2 92.8516 32.668C92.4916 33.136 91.9636 33.502 91.2676 33.766C90.5836 34.018 89.7676 34.144 88.8196 34.144ZM101.37 33.532C101.094 33.736 100.752 33.892 100.344 34C99.9481 34.096 99.5281 34.144 99.0841 34.144C97.9321 34.144 97.0381 33.85 96.4021 33.262C95.7781 32.674 95.4661 31.81 95.4661 30.67V26.692H93.9721V24.532H95.4661V22.174H98.2741V24.532H100.686V26.692H98.2741V30.634C98.2741 31.042 98.3761 31.36 98.5801 31.588C98.7961 31.804 99.0961 31.912 99.4801 31.912C99.9241 31.912 100.302 31.792 100.614 31.552L101.37 33.532ZM106.852 24.172C108.352 24.172 109.504 24.532 110.308 25.252C111.112 25.96 111.514 27.034 111.514 28.474V34H108.886V32.794C108.358 33.694 107.374 34.144 105.934 34.144C105.19 34.144 104.542 34.018 103.99 33.766C103.45 33.514 103.036 33.166 102.748 32.722C102.46 32.278 102.316 31.774 102.316 31.21C102.316 30.31 102.652 29.602 103.324 29.086C104.008 28.57 105.058 28.312 106.474 28.312H108.706C108.706 27.7 108.52 27.232 108.148 26.908C107.776 26.572 107.218 26.404 106.474 26.404C105.958 26.404 105.448 26.488 104.944 26.656C104.452 26.812 104.032 27.028 103.684 27.304L102.676 25.342C103.204 24.97 103.834 24.682 104.566 24.478C105.31 24.274 106.072 24.172 106.852 24.172ZM106.636 32.254C107.116 32.254 107.542 32.146 107.914 31.93C108.286 31.702 108.55 31.372 108.706 30.94V29.95H106.78C105.628 29.95 105.052 30.328 105.052 31.084C105.052 31.444 105.19 31.732 105.466 31.948C105.754 32.152 106.144 32.254 106.636 32.254ZM124.151 24.316V32.38C124.151 34.156 123.689 35.476 122.765 36.34C121.841 37.204 120.491 37.636 118.715 37.636C117.779 37.636 116.891 37.522 116.051 37.294C115.211 37.066 114.515 36.736 113.963 36.304L115.079 34.288C115.487 34.624 116.003 34.888 116.627 35.08C117.251 35.284 117.875 35.386 118.499 35.386C119.471 35.386 120.185 35.164 120.641 34.72C121.109 34.288 121.343 33.628 121.343 32.74V32.326C120.611 33.13 119.591 33.532 118.283 33.532C117.395 33.532 116.579 33.34 115.835 32.956C115.103 32.56 114.521 32.008 114.089 31.3C113.657 30.592 113.441 29.776 113.441 28.852C113.441 27.928 113.657 27.112 114.089 26.404C114.521 25.696 115.103 25.15 115.835 24.766C116.579 24.37 117.395 24.172 118.283 24.172C119.687 24.172 120.755 24.634 121.487 25.558V24.316H124.151ZM118.841 31.228C119.585 31.228 120.191 31.012 120.659 30.58C121.139 30.136 121.379 29.56 121.379 28.852C121.379 28.144 121.139 27.574 120.659 27.142C120.191 26.698 119.585 26.476 118.841 26.476C118.097 26.476 117.485 26.698 117.005 27.142C116.525 27.574 116.285 28.144 116.285 28.852C116.285 29.56 116.525 30.136 117.005 30.58C117.485 31.012 118.097 31.228 118.841 31.228ZM129.447 25.594C129.783 25.126 130.233 24.772 130.797 24.532C131.373 24.292 132.033 24.172 132.777 24.172V26.764C132.465 26.74 132.255 26.728 132.147 26.728C131.343 26.728 130.713 26.956 130.257 27.412C129.801 27.856 129.573 28.528 129.573 29.428V34H126.765V24.316H129.447V25.594ZM138.3 24.172C139.8 24.172 140.952 24.532 141.756 25.252C142.56 25.96 142.962 27.034 142.962 28.474V34H140.334V32.794C139.806 33.694 138.822 34.144 137.382 34.144C136.638 34.144 135.99 34.018 135.438 33.766C134.898 33.514 134.484 33.166 134.196 32.722C133.908 32.278 133.764 31.774 133.764 31.21C133.764 30.31 134.1 29.602 134.772 29.086C135.456 28.57 136.506 28.312 137.922 28.312H140.154C140.154 27.7 139.968 27.232 139.596 26.908C139.224 26.572 138.666 26.404 137.922 26.404C137.406 26.404 136.896 26.488 136.392 26.656C135.9 26.812 135.48 27.028 135.132 27.304L134.124 25.342C134.652 24.97 135.282 24.682 136.014 24.478C136.758 24.274 137.52 24.172 138.3 24.172ZM138.084 32.254C138.564 32.254 138.99 32.146 139.362 31.93C139.734 31.702 139.998 31.372 140.154 30.94V29.95H138.228C137.076 29.95 136.5 30.328 136.5 31.084C136.5 31.444 136.638 31.732 136.914 31.948C137.202 32.152 137.592 32.254 138.084 32.254ZM157.905 24.172C159.117 24.172 160.077 24.532 160.785 25.252C161.505 25.96 161.865 27.028 161.865 28.456V34H159.057V28.888C159.057 28.12 158.895 27.55 158.571 27.178C158.259 26.794 157.809 26.602 157.221 26.602C156.561 26.602 156.039 26.818 155.655 27.25C155.271 27.67 155.079 28.3 155.079 29.14V34H152.271V28.888C152.271 27.364 151.659 26.602 150.435 26.602C149.787 26.602 149.271 26.818 148.887 27.25C148.503 27.67 148.311 28.3 148.311 29.14V34H145.503V24.316H148.185V25.432C148.545 25.024 148.983 24.712 149.499 24.496C150.027 24.28 150.603 24.172 151.227 24.172C151.911 24.172 152.529 24.31 153.081 24.586C153.633 24.85 154.077 25.24 154.413 25.756C154.809 25.252 155.307 24.862 155.907 24.586C156.519 24.31 157.185 24.172 157.905 24.172Z" fill="white"/>
<path d="M46.8978 19.991C46.815 18.1815 46.5276 16.9457 46.1074 15.8645C45.6807 14.7301 45.0114 13.7027 44.1466 12.8534C43.2976 11.9886 42.2699 11.319 41.1355 10.8921C40.0541 10.4721 38.8185 10.185 37.009 10.1027C35.196 10.0197 34.6168 10 30 10C25.3832 10 24.804 10.0197 22.991 10.1022C21.1815 10.185 19.9459 10.4724 18.8645 10.8926C17.7301 11.3193 16.7027 11.9886 15.8534 12.8534C14.9886 13.7024 14.319 14.7299 13.8921 15.8642C13.4721 16.9457 13.185 18.1815 13.1027 19.9908C13.0197 21.804 13 22.3829 13 26.9997C13 31.6168 13.0197 32.196 13.1027 34.009C13.1852 35.8183 13.4726 37.0541 13.8929 38.1355C14.3196 39.2696 14.9888 40.2973 15.8537 41.1463C16.7027 42.0112 17.7304 42.6804 18.8648 43.1071C19.9459 43.5276 21.1817 43.8148 22.9913 43.8975C24.8045 43.9803 25.3835 43.9997 30.0003 43.9997C34.6171 43.9997 35.1963 43.9803 37.0092 43.8975C38.8188 43.8148 40.0543 43.5276 41.1358 43.1071C43.4193 42.2242 45.2244 40.419 46.1074 38.1355C46.5279 37.0541 46.815 35.8183 46.8978 34.009C46.9803 32.1958 47 31.6168 47 27C47 22.3829 46.9803 21.804 46.8978 19.991ZM43.8377 33.8697C43.7622 35.5272 43.4851 36.4274 43.2525 37.0263C42.6805 38.509 41.5088 39.6807 40.026 40.2527C39.4271 40.4854 38.527 40.7624 36.8694 40.8379C35.0772 40.9199 34.5395 40.937 30 40.937C25.4603 40.937 24.9228 40.9199 23.1303 40.8379C21.473 40.7624 20.5729 40.4854 19.9737 40.2527C19.2354 39.9801 18.5675 39.5456 18.0191 38.9809C17.4544 38.4325 17.0199 37.7648 16.7473 37.0263C16.5146 36.4274 16.2376 35.5272 16.1621 33.8697C16.0804 32.0772 16.063 31.5395 16.063 27.0003C16.063 22.4608 16.0804 21.9233 16.1621 20.1306C16.2378 18.473 16.5146 17.5729 16.7473 16.974C17.0199 16.2354 17.4547 15.5675 18.0191 15.0191C18.5675 14.4544 19.2354 14.0199 19.974 13.7475C20.5729 13.5146 21.473 13.2378 23.1306 13.1621C24.923 13.0804 25.4608 13.063 30 13.063H29.9997C34.539 13.063 35.0767 13.0804 36.8694 13.1623C38.527 13.2378 39.4268 13.5149 40.026 13.7475C40.7643 14.0202 41.4323 14.4547 41.9806 15.0191C42.5453 15.5675 42.9798 16.2354 43.2522 16.974C43.4851 17.5729 43.7622 18.473 43.8377 20.1306C43.9194 21.923 43.9368 22.4608 43.9368 27C43.9368 31.5395 43.9196 32.077 43.8377 33.8697Z" fill="white"/>
<path d="M29.9997 18.2701C25.1785 18.2701 21.2702 22.1788 21.2702 27C21.2702 31.8212 25.1785 35.7295 29.9997 35.7295C34.8212 35.7295 38.7296 31.8212 38.7296 27C38.7296 22.1788 34.8212 18.2701 29.9997 18.2701ZM29.9997 32.6665C26.8703 32.6663 24.3332 30.1294 24.3334 26.9997C24.3334 23.8703 26.8703 21.3331 30 21.3331C33.1297 21.3334 35.6666 23.8703 35.6666 26.9997C35.6666 30.1294 33.1294 32.6665 29.9997 32.6665Z" fill="white"/>
<path d="M41.1145 17.9254C41.1145 19.052 40.2011 19.9653 39.0746 19.9653C37.9477 19.9653 37.0344 19.052 37.0344 17.9254C37.0344 16.7986 37.9477 15.8853 39.0746 15.8853C40.2011 15.8853 41.1145 16.7986 41.1145 17.9254Z" fill="white"/>
<defs>
<linearGradient id="paint0_linear" x1="0" y1="27" x2="182" y2="27" gradientUnits="userSpaceOnUse">
<stop stop-color="#FFC401"/>
<stop offset="0.494792" stop-color="#F40169"/>
<stop offset="1" stop-color="#EA0287"/>
</linearGradient>
</defs>
</svg>
