<svg width="182" height="54" viewBox="0 0 182 54" fill="none" xmlns="http://www.w3.org/2000/svg">
<rect width="182" height="54" rx="10" fill="#039BE5"/>
<path d="M74.3599 23.776H70.3279V21.4H81.3079V23.776H77.2759V34H74.3599V23.776ZM91.1804 29.194C91.1804 29.23 91.1624 29.482 91.1264 29.95H83.8004C83.9324 30.55 84.2444 31.024 84.7364 31.372C85.2284 31.72 85.8404 31.894 86.5724 31.894C87.0764 31.894 87.5204 31.822 87.9044 31.678C88.3004 31.522 88.6664 31.282 89.0024 30.958L90.4964 32.578C89.5844 33.622 88.2524 34.144 86.5004 34.144C85.4084 34.144 84.4424 33.934 83.6024 33.514C82.7624 33.082 82.1144 32.488 81.6584 31.732C81.2024 30.976 80.9744 30.118 80.9744 29.158C80.9744 28.21 81.1964 27.358 81.6404 26.602C82.0964 25.834 82.7144 25.24 83.4944 24.82C84.2864 24.388 85.1684 24.172 86.1404 24.172C87.0884 24.172 87.9464 24.376 88.7144 24.784C89.4824 25.192 90.0824 25.78 90.5144 26.548C90.9584 27.304 91.1804 28.186 91.1804 29.194ZM86.1584 26.296C85.5224 26.296 84.9884 26.476 84.5564 26.836C84.1244 27.196 83.8604 27.688 83.7644 28.312H88.5344C88.4384 27.7 88.1744 27.214 87.7424 26.854C87.3104 26.482 86.7824 26.296 86.1584 26.296ZM93.0499 20.644H95.8579V34H93.0499V20.644ZM107.95 29.194C107.95 29.23 107.932 29.482 107.896 29.95H100.57C100.702 30.55 101.014 31.024 101.506 31.372C101.998 31.72 102.61 31.894 103.342 31.894C103.846 31.894 104.29 31.822 104.674 31.678C105.07 31.522 105.436 31.282 105.772 30.958L107.266 32.578C106.354 33.622 105.022 34.144 103.27 34.144C102.178 34.144 101.212 33.934 100.372 33.514C99.532 33.082 98.884 32.488 98.428 31.732C97.972 30.976 97.744 30.118 97.744 29.158C97.744 28.21 97.966 27.358 98.41 26.602C98.866 25.834 99.484 25.24 100.264 24.82C101.056 24.388 101.938 24.172 102.91 24.172C103.858 24.172 104.716 24.376 105.484 24.784C106.252 25.192 106.852 25.78 107.284 26.548C107.728 27.304 107.95 28.186 107.95 29.194ZM102.928 26.296C102.292 26.296 101.758 26.476 101.326 26.836C100.894 27.196 100.63 27.688 100.534 28.312H105.304C105.208 27.7 104.944 27.214 104.512 26.854C104.08 26.482 103.552 26.296 102.928 26.296ZM119.809 24.316V32.38C119.809 34.156 119.347 35.476 118.423 36.34C117.499 37.204 116.149 37.636 114.373 37.636C113.437 37.636 112.549 37.522 111.709 37.294C110.869 37.066 110.173 36.736 109.621 36.304L110.737 34.288C111.145 34.624 111.661 34.888 112.285 35.08C112.909 35.284 113.533 35.386 114.157 35.386C115.129 35.386 115.843 35.164 116.299 34.72C116.767 34.288 117.001 33.628 117.001 32.74V32.326C116.269 33.13 115.249 33.532 113.941 33.532C113.053 33.532 112.237 33.34 111.493 32.956C110.761 32.56 110.179 32.008 109.747 31.3C109.315 30.592 109.099 29.776 109.099 28.852C109.099 27.928 109.315 27.112 109.747 26.404C110.179 25.696 110.761 25.15 111.493 24.766C112.237 24.37 113.053 24.172 113.941 24.172C115.345 24.172 116.413 24.634 117.145 25.558V24.316H119.809ZM114.499 31.228C115.243 31.228 115.849 31.012 116.317 30.58C116.797 30.136 117.037 29.56 117.037 28.852C117.037 28.144 116.797 27.574 116.317 27.142C115.849 26.698 115.243 26.476 114.499 26.476C113.755 26.476 113.143 26.698 112.663 27.142C112.183 27.574 111.943 28.144 111.943 28.852C111.943 29.56 112.183 30.136 112.663 30.58C113.143 31.012 113.755 31.228 114.499 31.228ZM125.105 25.594C125.441 25.126 125.891 24.772 126.455 24.532C127.031 24.292 127.691 24.172 128.435 24.172V26.764C128.123 26.74 127.913 26.728 127.805 26.728C127.001 26.728 126.371 26.956 125.915 27.412C125.459 27.856 125.231 28.528 125.231 29.428V34H122.423V24.316H125.105V25.594ZM133.958 24.172C135.458 24.172 136.61 24.532 137.414 25.252C138.218 25.96 138.62 27.034 138.62 28.474V34H135.992V32.794C135.464 33.694 134.48 34.144 133.04 34.144C132.296 34.144 131.648 34.018 131.096 33.766C130.556 33.514 130.142 33.166 129.854 32.722C129.566 32.278 129.422 31.774 129.422 31.21C129.422 30.31 129.758 29.602 130.43 29.086C131.114 28.57 132.164 28.312 133.58 28.312H135.812C135.812 27.7 135.626 27.232 135.254 26.908C134.882 26.572 134.324 26.404 133.58 26.404C133.064 26.404 132.554 26.488 132.05 26.656C131.558 26.812 131.138 27.028 130.79 27.304L129.782 25.342C130.31 24.97 130.94 24.682 131.672 24.478C132.416 24.274 133.178 24.172 133.958 24.172ZM133.742 32.254C134.222 32.254 134.648 32.146 135.02 31.93C135.392 31.702 135.656 31.372 135.812 30.94V29.95H133.886C132.734 29.95 132.158 30.328 132.158 31.084C132.158 31.444 132.296 31.732 132.572 31.948C132.86 32.152 133.25 32.254 133.742 32.254ZM153.563 24.172C154.775 24.172 155.735 24.532 156.443 25.252C157.163 25.96 157.523 27.028 157.523 28.456V34H154.715V28.888C154.715 28.12 154.553 27.55 154.229 27.178C153.917 26.794 153.467 26.602 152.879 26.602C152.219 26.602 151.697 26.818 151.313 27.25C150.929 27.67 150.737 28.3 150.737 29.14V34H147.929V28.888C147.929 27.364 147.317 26.602 146.093 26.602C145.445 26.602 144.929 26.818 144.545 27.25C144.161 27.67 143.969 28.3 143.969 29.14V34H141.161V24.316H143.843V25.432C144.203 25.024 144.641 24.712 145.157 24.496C145.685 24.28 146.261 24.172 146.885 24.172C147.569 24.172 148.187 24.31 148.739 24.586C149.291 24.85 149.735 25.24 150.071 25.756C150.467 25.252 150.965 24.862 151.565 24.586C152.177 24.31 152.843 24.172 153.563 24.172Z" fill="white"/>
<g clip-path="url(#clip0)">
<path d="M26.9865 30.7112L26.5233 37.2259C27.186 37.2259 27.473 36.9412 27.8172 36.5994L30.924 33.6302L37.3617 38.3447C38.5423 39.0027 39.3742 38.6562 39.6927 37.2585L43.9183 17.4579L43.9195 17.4567C44.294 15.7114 43.2883 15.0289 42.138 15.457L17.2997 24.9665C15.6045 25.6245 15.6302 26.5695 17.0115 26.9977L23.3617 28.9729L38.1118 19.7434C38.806 19.2837 39.4372 19.538 38.918 19.9977L26.9865 30.7112Z" fill="white"/>
</g>
<defs>
<clipPath id="clip0">
<rect width="28" height="28" fill="white" transform="translate(16 13)"/>
</clipPath>
</defs>
</svg>
